<svg aria-hidden="true" style="position: absolute; width: 0; height: 0; overflow: hidden;" version="1.1" xmlns="http://www.w3.org/2000/svg" xmlns:xlink="http://www.w3.org/1999/xlink">
<defs>
<symbol id="icon-arr-left" viewBox="0 0 28 32">
<path d="M8.379 18.5h18.871c0.414 0 0.75-0.336 0.75-0.75v-3.5c0-0.414-0.336-0.75-0.75-0.75h-18.871v-2.879c0-1.336-1.616-2.006-2.561-1.061l-5.379 5.379c-0.586 0.586-0.586 1.536 0 2.121l5.379 5.379c0.945 0.945 2.561 0.276 2.561-1.061v-2.879z"></path>
</symbol>
<symbol id="icon-arr-right" viewBox="0 0 28 32">
<path d="M19.621 13.5h-18.871c-0.414 0-0.75 0.336-0.75 0.75v3.5c0 0.414 0.336 0.75 0.75 0.75h18.871v2.879c0 1.336 1.616 2.006 2.561 1.061l5.379-5.379c0.586-0.586 0.586-1.536 0-2.121l-5.379-5.379c-0.945-0.945-2.561-0.276-2.561 1.061v2.879z"></path>
</symbol>
<symbol id="icon-branding" viewBox="0 0 32 32">
<path fill="none" stroke="#643d95" style="stroke: var(--color1, #643d95)" stroke-linejoin="miter" stroke-linecap="round" stroke-miterlimit="4" stroke-width="1.92" d="M23.68 13.76c0 5.655-4.585 10.24-10.24 10.24s-10.24-4.585-10.24-10.24c0-5.655 4.585-10.24 10.24-10.24s10.24 4.585 10.24 10.24z"></path>
<path fill="none" stroke="#643d95" style="stroke: var(--color1, #643d95)" stroke-linejoin="miter" stroke-linecap="round" stroke-miterlimit="4" stroke-width="1.92" d="M17.28 13.76c0 2.121-1.719 3.84-3.84 3.84s-3.84-1.719-3.84-3.84c0-2.121 1.719-3.84 3.84-3.84s3.84 1.719 3.84 3.84z"></path>
<path fill="#ff57b5" style="fill: var(--color2, #ff57b5)" opacity="0.58" d="M28.8 20.8c0 2.474-3.152 4.48-7.040 4.48s-7.040-2.006-7.040-4.48c0-2.474 3.152-4.48 7.040-4.48s7.040 2.006 7.040 4.48z"></path>
<path fill="none" stroke="#643d95" style="stroke: var(--color1, #643d95)" stroke-linejoin="round" stroke-linecap="round" stroke-miterlimit="4" stroke-width="1.92" d="M8.96 28.48h8.96"></path>
</symbol>
<symbol id="icon-facebook" viewBox="0 0 20 32">
<path d="M17.446 18l0.889-5.791h-5.557v-3.758c0-1.584 0.776-3.129 3.265-3.129h2.526v-4.931s-2.293-0.391-4.484-0.391c-4.576 0-7.567 2.774-7.567 7.795v4.414h-5.087v5.791h5.087v14h6.261v-14z"></path>
</symbol>
<symbol id="icon-games" viewBox="0 0 32 32">
<path fill="#643d95" style="fill: var(--color1, #643d95)" d="M21.971 13.616c0 0.53-0.43 0.96-0.96 0.96s-0.96-0.43-0.96-0.96c0-0.53 0.43-0.96 0.96-0.96s0.96 0.43 0.96 0.96z"></path>
<path fill="#643d95" style="fill: var(--color1, #643d95)" d="M19.443 11.088c0 0.53-0.43 0.96-0.96 0.96s-0.96-0.43-0.96-0.96c0-0.53 0.43-0.96 0.96-0.96s0.96 0.43 0.96 0.96z"></path>
<path fill="none" stroke="#643d95" style="stroke: var(--color1, #643d95)" stroke-linejoin="round" stroke-linecap="round" stroke-miterlimit="4" stroke-width="1.28" d="M10.24 12.419v0 0 0 0z"></path>
<path fill="none" stroke="#643d95" style="stroke: var(--color1, #643d95)" stroke-linejoin="miter" stroke-linecap="round" stroke-miterlimit="4" stroke-width="1.92" d="M10.15 4.32h9.28c4.242 0 7.68 3.438 7.68 7.68v0.64c0 4.242-3.438 7.68-7.68 7.68h-9.28c-4.242 0-7.68-3.438-7.68-7.68v-0.64c0-4.242 3.438-7.68 7.68-7.68z"></path>
<path fill="#2da2ff" style="fill: var(--color3, #2da2ff)" opacity="0.58" d="M17.933 19.642l4.978-4.978c0.375-0.375 0.983-0.375 1.358 0l4.978 4.978c0.375 0.375 0.375 0.983 0 1.358l-4.978 4.978c-0.375 0.375-0.983 0.375-1.358 0l-4.978-4.978c-0.375-0.375-0.375-0.983 0-1.358z"></path>
<path fill="none" stroke="#643d95" style="stroke: var(--color1, #643d95)" stroke-linejoin="round" stroke-linecap="round" stroke-miterlimit="4" stroke-width="1.92" d="M14.79 23.52v4.16"></path>
</symbol>
<symbol id="icon-linkedin" viewBox="0 0 28 32">
<path d="M6.268 28h-5.805v-18.694h5.805zM3.362 6.756c-1.856 0-3.362-1.537-3.362-3.394s1.505-3.362 3.362-3.362 3.362 1.505 3.362 3.362v0c0 1.856-1.506 3.394-3.362 3.394zM27.994 28h-5.793v-9.1c0-2.169-0.044-4.95-3.018-4.95-3.018 0-3.481 2.356-3.481 4.794v9.256h-5.799v-18.694h5.568v2.55h0.081c0.775-1.469 2.668-3.019 5.492-3.019 5.875 0 6.955 3.869 6.955 8.894v10.269z"></path>
</symbol>
<symbol id="icon-marketing" viewBox="0 0 32 32">
<path fill="none" stroke="#643d95" style="stroke: var(--color1, #643d95)" stroke-linejoin="miter" stroke-linecap="round" stroke-miterlimit="4" stroke-width="1.92" d="M6.24 5.12h12.16c0.884 0 1.6 0.716 1.6 1.6v18.56c0 0.884-0.716 1.6-1.6 1.6h-12.16c-0.884 0-1.6-0.716-1.6-1.6v-18.56c0-0.884 0.716-1.6 1.6-1.6z"></path>
<path fill="#643d95" style="fill: var(--color1, #643d95)" d="M13.28 23.36c0 0.53-0.43 0.96-0.96 0.96s-0.96-0.43-0.96-0.96c0-0.53 0.43-0.96 0.96-0.96s0.96 0.43 0.96 0.96z"></path>
<path fill="#ffd92d" style="fill: var(--color4, #ffd92d)" opacity="0.58" d="M27.36 20.8c0 3.004-2.436 5.44-5.44 5.44s-5.44-2.436-5.44-5.44c0-3.004 2.436-5.44 5.44-5.44s5.44 2.436 5.44 5.44z"></path>
</symbol>
<symbol id="icon-star" viewBox="0 0 36 32">
<path d="M16.206 1.113l-4.081 8.275-9.131 1.331c-1.637 0.238-2.294 2.256-1.106 3.412l6.606 6.438-1.563 9.094c-0.281 1.644 1.45 2.875 2.9 2.106l8.169-4.294 8.169 4.294c1.45 0.762 3.181-0.462 2.9-2.106l-1.563-9.094 6.606-6.438c1.188-1.156 0.531-3.175-1.106-3.412l-9.131-1.331-4.081-8.275c-0.731-1.475-2.85-1.494-3.587 0z"></path>
</symbol>
<symbol id="icon-twitter" viewBox="0 0 32 32">
<path d="M28.711 9.482c0.020 0.284 0.020 0.569 0.020 0.853 0 8.67-6.599 18.66-18.66 18.66-3.716 0-7.168-1.076-10.071-2.944 0.528 0.061 1.036 0.081 1.584 0.081 3.066 0 5.888-1.035 8.142-2.802-2.883-0.061-5.3-1.949-6.132-4.548 0.406 0.061 0.812 0.102 1.239 0.102 0.589 0 1.178-0.081 1.726-0.223-3.005-0.609-5.259-3.249-5.259-6.437v-0.081c0.873 0.487 1.888 0.792 2.964 0.832-1.766-1.178-2.924-3.188-2.924-5.462 0-1.218 0.325-2.335 0.893-3.31 3.228 3.98 8.081 6.579 13.523 6.863-0.101-0.487-0.162-0.995-0.162-1.502 0-3.614 2.924-6.558 6.558-6.558 1.888 0 3.594 0.792 4.792 2.071 1.482-0.284 2.904-0.832 4.162-1.584-0.487 1.523-1.523 2.802-2.883 3.614 1.32-0.142 2.599-0.508 3.777-1.015-0.893 1.299-2.010 2.457-3.289 3.391z"></path>
</symbol>
<symbol id="icon-ui" viewBox="0 0 32 32">
<path fill="none" stroke="#643d95" style="stroke: var(--color1, #643d95)" stroke-linejoin="miter" stroke-linecap="round" stroke-miterlimit="4" stroke-width="1.92" d="M4.358 5.6h17.92c0.884 0 1.6 0.716 1.6 1.6v13.12c0 0.884-0.716 1.6-1.6 1.6h-17.92c-0.884 0-1.6-0.716-1.6-1.6v-13.12c0-0.884 0.716-1.6 1.6-1.6z"></path>
<path fill="#2dffd6" style="fill: var(--color5, #2dffd6)" opacity="0.58" d="M19.398 14.24v9.635c-0 0.005-0 0.012-0 0.018 0 0.707 0.573 1.28 1.28 1.28 0.264 0 0.508-0.080 0.712-0.216l-0.005 0.003 7.28-4.835c0.348-0.233 0.574-0.624 0.574-1.067 0-0.263-0.079-0.507-0.215-0.71l0.003 0.005c-0.097-0.144-0.217-0.265-0.357-0.359l-0.005-0.003-7.28-4.819c-0.199-0.134-0.444-0.213-0.707-0.213-0.707 0-1.28 0.573-1.28 1.28 0 0.001 0 0.001 0 0.002v-0z"></path>
<path fill="none" stroke="#643d95" style="stroke: var(--color1, #643d95)" stroke-linejoin="round" stroke-linecap="round" stroke-miterlimit="4" stroke-width="1.92" d="M9.798 26.4s1.76-0.96 3.52-0.96 3.52 0.96 3.52 0.96"></path>
<path fill="#643d95" style="fill: var(--color1, #643d95)" d="M14.278 18.4c0 0.53-0.43 0.96-0.96 0.96s-0.96-0.43-0.96-0.96c0-0.53 0.43-0.96 0.96-0.96s0.96 0.43 0.96 0.96z"></path>
</symbol>
<symbol id="icon-youtube" viewBox="0 0 36 32">
<path d="M34.353 7.755c-0.393-1.478-1.549-2.642-3.018-3.037-2.662-0.718-13.336-0.718-13.336-0.718s-10.674 0-13.336 0.718c-1.469 0.395-2.625 1.559-3.018 3.037-0.713 2.679-0.713 8.269-0.713 8.269s0 5.59 0.713 8.269c0.393 1.478 1.549 2.594 3.018 2.989 2.662 0.718 13.336 0.718 13.336 0.718s10.674 0 13.336-0.718c1.469-0.395 2.625-1.511 3.018-2.989 0.713-2.679 0.713-8.269 0.713-8.269s0-5.59-0.713-8.269zM14.509 21.099v-10.15l8.921 5.075-8.921 5.075z"></path>
</symbol>
</defs>
</svg>
